<svg width="33" height="32" viewBox="0 0 33 32" fill="none" xmlns="http://www.w3.org/2000/svg">
<g clip-path="url(#clip0_259_40)">
<path d="M12.8831 10.1659C12.9863 9.49515 13.5635 9 14.2421 9H26.8125V21.0312L22.6465 30.3245C22.5004 30.6506 22.073 30.7292 21.8203 30.4766C21.055 29.7112 20.625 28.6732 20.625 27.5908V23.7812C20.625 23.0219 20.0094 22.4062 19.25 22.4062H12.6027C11.76 22.4062 11.1156 21.6551 11.2437 20.8222L12.8831 10.1659Z" fill="#19191B"/>
<path d="M29.2188 9H31.625C32.3844 9 33 9.61561 33 10.375V19.6562C33 20.4156 32.3844 21.0312 31.625 21.0312H29.2188V9Z" fill="#19191B"/>
</g>
<defs>
<clipPath id="clip0_259_40">
<rect width="32" height="32" fill="white" transform="translate(0.5)"/>
</clipPath>
</defs>
</svg>
