<svg width="33" height="32" viewBox="0 0 33 32" fill="none" xmlns="http://www.w3.org/2000/svg">
<g clip-path="url(#clip0_259_402)">
<path d="M31.1169 21.8341C31.0137 22.5048 30.4365 23 29.7579 23H17.1875V10.9688L21.3535 1.67547C21.4996 1.34942 21.927 1.27077 22.1797 1.52343C22.945 2.28878 23.375 3.32682 23.375 4.40919V8.21875C23.375 8.97814 23.9906 9.59375 24.75 9.59375H31.3973C32.24 9.59375 32.8844 10.3449 32.7563 11.1778L31.1169 21.8341Z" fill="#19191B"/>
<path d="M14.7812 23H12.375C11.6156 23 11 22.3844 11 21.625V12.3438C11 11.5844 11.6156 10.9688 12.375 10.9688H14.7812V23Z" fill="#19191B"/>
</g>
<defs>
<clipPath id="clip0_259_402">
<rect width="32" height="32" fill="white" transform="translate(0.5)"/>
</clipPath>
</defs>
</svg>
